<svg xmlns="http://www.w3.org/2000/svg" width="256" height="256"><g stroke-width="0" stroke-miterlimit="10" fill="none"><path d="M165.335 166.648L46.77 48.082a7.595 7.595 0 010-10.741L79.92 4.188a7.595 7.595 0 0110.742 0l118.566 118.566a7.595 7.595 0 010 10.741l-33.15 33.153a7.598 7.598 0 01-10.744 0z"/><path d="M165.335 89.352L46.77 207.918a7.595 7.595 0 000 10.741l33.153 33.153a7.595 7.595 0 0010.741 0l118.567-118.566a7.595 7.595 0 000-10.741l-33.153-33.153a7.598 7.598 0 00-10.744 0z"/></g></svg>