<svg xmlns="http://www.w3.org/2000/svg" width="256" height="256"><g stroke-width="0" stroke-miterlimit="10" fill="black"><path d="M90.665 166.648L209.232 48.082a7.595 7.595 0 000-10.741L176.079 4.188a7.595 7.595 0 00-10.742 0L46.771 122.754a7.595 7.595 0 000 10.741l33.153 33.153a7.595 7.595 0 0010.741 0z"/><path d="M90.665 89.352l118.567 118.566a7.595 7.595 0 010 10.741l-33.153 33.153a7.595 7.595 0 01-10.742 0L46.771 133.246a7.595 7.595 0 010-10.741l33.153-33.153a7.595 7.595 0 0110.741 0z"/></g></svg>
