<svg id="Layer_1" data-name="Layer 1" xmlns="http://www.w3.org/2000/svg" viewBox="0 0 512 512"><defs><style>.cls-1{fill:#898989}</style></defs><path class="cls-1" d="M256 421C147.78 421 49.91 358.72.58 258.51a5.7 5.7 0 010-5C49.91 153.28 147.78 91 256 91s206.09 62.26 255.42 162.47a5.7 5.7 0 010 5C462.09 358.72 364.22 421 256 421zM12 256c47.78 94.82 141 153.6 244 153.6S452.17 350.82 500 256c-47.78-94.82-141-153.6-244-153.6S59.83 161.18 12 256z"/><path class="cls-1" d="M256 352.71A96.71 96.71 0 11352.71 256 96.82 96.82 0 01256 352.71zm0-182A85.33 85.33 0 10341.33 256 85.43 85.43 0 00256 170.67z"/></svg>