<svg version="1.1" id="Layer_1" xmlns="http://www.w3.org/2000/svg" x="0" y="0" viewBox="0 0 512 512" xml:space="preserve"><style>.st0{fill:#898989}</style><path class="st0" d="M71.3 341c-1.4 0-2.8-.5-3.8-1.5C39.7 314.2 17 284 .5 250.3c-.8-1.6-.8-3.4 0-5C49.9 145.1 147.7 82.8 256 82.8c19.3 0 38.5 2 57.4 6 3.1.7 5.1 3.7 4.4 6.8s-3.7 5.1-6.8 4.4c-18.1-3.8-36.5-5.8-55-5.8-103 0-196.2 58.8-244 153.6 15.8 31.4 37.2 59.6 63.1 83.3 2.3 2.1 2.5 5.7.4 8-1.1 1.2-2.7 1.9-4.2 1.9zM256 412.8c-40.9.1-81.3-8.9-118.4-26.4-2.8-1.3-4.1-4.7-2.7-7.6 1.3-2.8 4.7-4.1 7.6-2.7 35.5 16.7 74.3 25.3 113.5 25.3 103 0 196.2-58.8 244-153.6-24.7-48.9-62-89.1-108-116.4-2.7-1.6-3.6-5.1-2-7.8s5.1-3.6 7.8-2c48.8 28.9 88.1 71.6 113.7 123.7.8 1.6.8 3.4 0 5C462 350.5 364.2 412.8 256 412.8z"/><path class="st0" d="M256 344.5c-21.1.1-41.7-6.8-58.4-19.7-2.6-1.8-3.3-5.3-1.5-7.9 1.8-2.6 5.3-3.3 7.9-1.5.2.1.4.3.5.4 14.8 11.3 32.9 17.4 51.5 17.3 47.1-.1 85.3-38.2 85.3-85.3.1-18.6-6-36.7-17.3-51.5-2.1-2.4-1.8-6 .5-8 2.4-2.1 6-1.8 8 .5.2.2.3.4.4.5 12.9 16.7 19.8 37.3 19.7 58.4 0 53.5-43.3 96.7-96.6 96.8zm-90.8-97.4h-.4c-3.1-.2-5.5-2.9-5.3-6.1 3.4-48.1 41.7-86.3 89.7-89.7 3.1-.2 5.9 2.2 6.1 5.3.2 3.1-2.2 5.9-5.3 6.1-42.4 3-76.1 36.7-79.1 79.1-.3 3-2.7 5.3-5.7 5.3z"/><path class="st0" d="M23.6 497.8c-3.1 0-5.7-2.6-5.7-5.7 0-1.5.6-2.9 1.7-4L492.2 15.5c2.4-2 6-1.6 8 .9 1.7 2.1 1.7 5.1 0 7.1L27.7 496.1c-1.1 1.1-2.5 1.7-4.1 1.7z"/></svg>