<svg xmlns="http://www.w3.org/2000/svg" viewBox="0 0 1000 1000"><path d="M500 990c271.1 0 490-218.9 490-490S771.1 10 500 10 10 228.9 10 500s218.9 490 490 490zm0-917.9c235.2 0 427.9 192.7 427.9 427.9S735.2 927.9 500 927.9 72.1 735.2 72.1 500 264.8 72.1 500 72.1zm0 104.5c104.5 0 192.7 84.9 192.7 189.5 0 104.5-84.9 189.5-192.7 189.5-104.5 0-192.7-84.9-192.7-189.5S395.5 176.6 500 176.6zm0 326.7c75.1 0 137.2-62.1 137.2-133.9 0-75.1-62.1-133.9-137.2-133.9s-137.2 62.1-137.2 133.9c0 71.8 62.1 133.9 137.2 133.9zm0 0c150.3 0 274.4 120.9 274.4 271.1h-55.5c0-120.9-98-215.6-218.9-215.6s-218.9 98-218.9 215.6h-55.5c0-150.3 124.1-271.1 274.4-271.1z"/></svg>