<svg xmlns="http://www.w3.org/2000/svg" xmlns:xlink="http://www.w3.org/1999/xlink"><defs>

<style>.cls-1{fill:#707070;}</style>
<linearGradient id="paint0_linear_10112:2" x1="7.04852" y1="12.5" x2="13.7873" y2="13.0023" gradientUnits="userSpaceOnUse">
<stop stop-color="#C89AFC"/>
<stop offset="1" stop-color="#7C6AFA"/>
</linearGradient>
<linearGradient id="paint1_linear_10112:2" x1="12.3187" y1="78.125" x2="29.4528" y2="102.391" gradientUnits="userSpaceOnUse">
<stop stop-color="#C89AFC"/>
<stop offset="1" stop-color="#7C6AFA"/>
</linearGradient>
<linearGradient id="paint2_linear_10112:2" x1="12.3187" y1="84.375" x2="29.4528" y2="108.641" gradientUnits="userSpaceOnUse">
<stop stop-color="#C89AFC"/>
<stop offset="1" stop-color="#7C6AFA"/>
</linearGradient>
<linearGradient id="paint3_linear_10112:2" x1="82.5276" y1="12.5" x2="92.4845" y2="15.4686" gradientUnits="userSpaceOnUse">
<stop stop-color="#C89AFC"/>
<stop offset="1" stop-color="#7C6AFA"/>
</linearGradient>
<linearGradient id="paint4_linear_10112:2" x1="82.5276" y1="18.75" x2="92.4845" y2="21.7186" gradientUnits="userSpaceOnUse">
<stop stop-color="#C89AFC"/>
<stop offset="1" stop-color="#7C6AFA"/>
</linearGradient>
<linearGradient id="paint5_linear_10112:2" x1="82.5276" y1="25" x2="92.4845" y2="27.9686" gradientUnits="userSpaceOnUse">
<stop stop-color="#C89AFC"/>
<stop offset="1" stop-color="#7C6AFA"/>
</linearGradient>
<linearGradient id="paint6_linear_10112:2" x1="58.611" y1="26.5625" x2="65.3498" y2="27.0648" gradientUnits="userSpaceOnUse">
<stop stop-color="#C89AFC"/>
<stop offset="1" stop-color="#7C6AFA"/>
</linearGradient>
<linearGradient id="paint7_linear_10112:2" x1="77.5552" y1="6.24999" x2="99.2178" y2="6.92986" gradientUnits="userSpaceOnUse">
<stop stop-color="#C89AFC"/>
<stop offset="1" stop-color="#7C6AFA"/>
</linearGradient>
<linearGradient id="paint8_linear_10112:2" x1="7.34634" y1="71.875" x2="66.1598" y2="86.279" gradientUnits="userSpaceOnUse">
<stop stop-color="#C89AFC"/>
<stop offset="1" stop-color="#7C6AFA"/>
</linearGradient>
<linearGradient id="paint9_linear_10112:2" x1="79.722" y1="71.875" x2="93.2361" y2="72.5945" gradientUnits="userSpaceOnUse">
<stop stop-color="#C89AFC"/>
<stop offset="1" stop-color="#7C6AFA"/>
</linearGradient>
<linearGradient id="paint10_linear_10112:2" x1="7.34634" y1="6.24999" x2="69.1841" y2="11.8296" gradientUnits="userSpaceOnUse">
<stop stop-color="#C89AFC"/>
<stop offset="1" stop-color="#7C6AFA"/>
</linearGradient>
<linearGradient id="paint11_linear_10112:2" x1="82.5268" y1="43.75" x2="93.3316" y2="44.3934" gradientUnits="userSpaceOnUse">
<stop stop-color="#C89AFC"/>
<stop offset="1" stop-color="#7C6AFA"/>
</linearGradient>
<linearGradient id="paint12_linear_10112:2" x1="33.1319" y1="43.75" x2="35.8274" y2="43.9509" gradientUnits="userSpaceOnUse">
<stop stop-color="#C89AFC"/>
<stop offset="1" stop-color="#7C6AFA"/>
</linearGradient>
<style>.cls-1{fill:#898989;}</style>
<linearGradient id="paint0_linear_10112:21" x1="9.69441" y1="9.375" x2="12.3899" y2="9.57592" gradientUnits="userSpaceOnUse">
<stop stop-color="#C89AFC"/>
<stop offset="1" stop-color="#7C6AFA"/>
</linearGradient>
<linearGradient id="paint1_linear_10112:21" x1="9.69441" y1="15.625" x2="12.3899" y2="15.8259" gradientUnits="userSpaceOnUse">
<stop stop-color="#C89AFC"/>
<stop offset="1" stop-color="#7C6AFA"/>
</linearGradient>
<linearGradient id="paint2_linear_10112:21" x1="87.8194" y1="81.25" x2="90.5149" y2="81.4509" gradientUnits="userSpaceOnUse">
<stop stop-color="#C89AFC"/>
<stop offset="1" stop-color="#7C6AFA"/>
</linearGradient>
<linearGradient id="paint3_linear_10112:21" x1="87.8194" y1="87.5" x2="90.5149" y2="87.7009" gradientUnits="userSpaceOnUse">
<stop stop-color="#C89AFC"/>
<stop offset="1" stop-color="#7C6AFA"/>
</linearGradient>
<linearGradient id="paint4_linear_10112:21" x1="10.221" y1="-1.0863e-05" x2="96.4773" y2="6.42932" gradientUnits="userSpaceOnUse">
<stop stop-color="#C89AFC"/>
<stop offset="1" stop-color="#7C6AFA"/>
</linearGradient>

<linearGradient id="paint0_linear_10112:16" x1="44.0694" y1="6.25" x2="46.779" y2="6.30049" gradientUnits="userSpaceOnUse">
<stop stop-color="#C89AFC"/>
<stop offset="1" stop-color="#7C6AFA"/>
</linearGradient>
<linearGradient id="paint1_linear_10112:16" x1="53.4444" y1="6.25" x2="56.154" y2="6.30049" gradientUnits="userSpaceOnUse">
<stop stop-color="#C89AFC"/>
<stop offset="1" stop-color="#7C6AFA"/>
</linearGradient>
<linearGradient id="paint2_linear_10112:16" x1="32.5967" y1="-1.0863e-05" x2="70.5032" y2="1.23613" gradientUnits="userSpaceOnUse">
<stop stop-color="#C89AFC"/>
<stop offset="1" stop-color="#7C6AFA"/>
</linearGradient>
<linearGradient id="paint3_linear_10112:16" x1="37.5682" y1="31.1279" x2="64.6322" y2="32.1872" gradientUnits="userSpaceOnUse">
<stop stop-color="#C89AFC"/>
<stop offset="1" stop-color="#7C6AFA"/>
</linearGradient>

<clipPath>
<rect width="24" height="24"/>
</clipPath>
</defs><symbol id="arrowBack" viewBox="0 0 256 256">
<desc>Created with Fabric.js 1.7.22</desc>

<g transform="translate(128 128) scale(0.72 0.72)" style="">
	<g style="stroke: none; stroke-width: 0; stroke-dasharray: none; stroke-linecap: butt; stroke-linejoin: miter; stroke-miterlimit: 10; fill: none; fill-rule: nonzero; opacity: 1;" transform="translate(-175.05 -175.05000000000004) scale(3.89 3.89)">
	<path d="M 31.67 58.799 l 42.333 -42.333 c 1.059 -1.059 1.059 -2.776 0 -3.835 L 62.166 0.794 c -1.059 -1.059 -2.776 -1.059 -3.835 0 L 15.998 43.127 c -1.059 1.059 -1.059 2.776 0 3.835 l 11.837 11.837 C 28.893 59.858 30.61 59.858 31.67 58.799 z" style="stroke: none; stroke-width: 1; stroke-dasharray: none; stroke-linecap: butt; stroke-linejoin: miter; stroke-miterlimit: 10; fill: rgb(0,0,0); fill-rule: nonzero; opacity: 1;" transform=" matrix(1 0 0 1 0 0) " stroke-linecap="round"/>
	<path d="M 31.67 31.201 l 42.333 42.333 c 1.059 1.059 1.059 2.776 0 3.835 L 62.166 89.206 c -1.059 1.059 -2.776 1.059 -3.835 0 L 15.998 46.873 c -1.059 -1.059 -1.059 -2.776 0 -3.835 l 11.837 -11.837 C 28.893 30.142 30.61 30.142 31.67 31.201 z" style="stroke: none; stroke-width: 1; stroke-dasharray: none; stroke-linecap: butt; stroke-linejoin: miter; stroke-miterlimit: 10; fill: rgb(0,0,0); fill-rule: nonzero; opacity: 1;" transform=" matrix(1 0 0 1 0 0) " stroke-linecap="round"/>
</g>
</g>
</symbol><symbol id="arrowNext" viewBox="0 0 256 256">
<desc>Created with Fabric.js 1.7.22</desc>

<g transform="translate(128 128) scale(0.72 0.72)" style="">
	<g style="stroke: none; stroke-width: 0; stroke-dasharray: none; stroke-linecap: butt; stroke-linejoin: miter; stroke-miterlimit: 10; fill: none; fill-rule: nonzero; opacity: 1;" transform="translate(-175.05 -175.05000000000004) scale(3.89 3.89)">
	<path d="M 58.33 58.799 L 15.998 16.466 c -1.059 -1.059 -1.059 -2.776 0 -3.835 L 27.834 0.794 c 1.059 -1.059 2.776 -1.059 3.835 0 l 42.333 42.333 c 1.059 1.059 1.059 2.776 0 3.835 L 62.166 58.799 C 61.107 59.858 59.39 59.858 58.33 58.799 z" style="stroke: none; stroke-width: 1; stroke-dasharray: none; stroke-linecap: butt; stroke-linejoin: miter; stroke-miterlimit: 10; fill: rgb(0,0,0); fill-rule: nonzero; opacity: 1;" transform=" matrix(1 0 0 1 0 0) " stroke-linecap="round"/>
	<path d="M 58.33 31.201 L 15.998 73.534 c -1.059 1.059 -1.059 2.776 0 3.835 l 11.837 11.837 c 1.059 1.059 2.776 1.059 3.835 0 l 42.333 -42.333 c 1.059 -1.059 1.059 -2.776 0 -3.835 L 62.166 31.201 C 61.107 30.142 59.39 30.142 58.33 31.201 z" style="stroke: none; stroke-width: 1; stroke-dasharray: none; stroke-linecap: butt; stroke-linejoin: miter; stroke-miterlimit: 10; fill: rgb(0,0,0); fill-rule: nonzero; opacity: 1;" transform=" matrix(1 0 0 1 0 0) " stroke-linecap="round"/>
</g>
</g>
</symbol><symbol id="arrowUp" viewBox="0 0 16 16">
  <path fill-rule="evenodd" d="M8 15a.5.5 0 0 0 .5-.5V2.707l3.146 3.147a.5.5 0 0 0 .708-.708l-4-4a.5.5 0 0 0-.708 0l-4 4a.5.5 0 1 0 .708.708L7.5 2.707V14.5a.5.5 0 0 0 .5.5z"/>
</symbol><symbol id="avatar" viewBox="0 0 512 512"><title>user-plus-handdrawn</title><path class="cls-1" d="M429.5,458.54q-1,.64-2,1.19l.19,3.5a38.16,38.16,0,0,1-.39,11.44,30,30,0,0,1-24.72,23.42c1.55-.73.53-.44-3.95-.4l-25.51-.14-38.59.07-125.46-.14a2.79,2.79,0,0,1-.63-.11l6.38-.06,157.2-.24,12.62.15c6.23-.16,12.82.43,18.72-.5a28.87,28.87,0,0,0,15.76-8.57,15.63,15.63,0,0,0-2.92,2,29.24,29.24,0,0,1-12,5.16,31.22,31.22,0,0,1-7,.37l-7.78-.34c4.82-.13,8.75-.1,11.19-.36a30.36,30.36,0,0,0,6.22-1.41,29.26,29.26,0,0,0,10.72-6.33,27,27,0,0,0,5.59-8,29.33,29.33,0,0,0,2.08-15.74c0-.84-.11-1.7-.15-2.55A30.67,30.67,0,0,1,414.4,463c0,.26,0,.53,0,.79l.14,3,.05,1.41-.07.87a12.9,12.9,0,0,1-.55,3.23,16.36,16.36,0,0,1-2.42,5A17,17,0,0,1,400,484.11c-.56.11-1.14,0-1.71.11s-2,0-3,0H389l-12.52.08c-8.28.08-11.07.45-16.33.68l1.56.19-46.26-.35c-25.68-.55-67.39-.71-99.66-.29l-19.09.07-99.93,0-21.53,0H72.55c-.89,0-1.91,0-2.23,0a18.82,18.82,0,0,1-2.92-.31A16,16,0,0,1,62,482.16,16.92,16.92,0,0,1,54.94,473a20.09,20.09,0,0,1-.61-2.88,18.31,18.31,0,0,1-.07-3.61l.49-9.88a49.27,49.27,0,0,1,.87-8.37l1.27-8.42c1-5.59,2.73-11.07,4.08-16.58,2.08-5.27,3.69-10.69,6-15.67l3.58-7.33,1.75-3.6,2.08-3.34a145.12,145.12,0,0,1,30.75-37.2,160.33,160.33,0,0,1,40.79-26.07l8.94-3.23c6.89-2,12-3.46,16.45-4.55l-.1,8L183.8,338l18.11,10.68-2.74-1.37,8.19,5a21.27,21.27,0,0,0,2.7,2.51c.83.63,4.49,3,6.06,3.93l8.28,4.89,10.07,6.1L255,357.66l8.42-5.09,16.51-10.22,18.8-11.46c0-3-.05-5.95-.08-8.85l0-2.85,2.58.66.14,12.51L288.91,340c-.86.68-2.75,2.09-3.74,3-.46.41.23.19,1.41-.39l3.14-1.6,4-2.1c3.41-1.86,6.39-3.47,7.19-3.74a24.14,24.14,0,0,0,2.91-1.4c.17-2.88.22-8.1.24-13.15l5.56,1.43c2.27.76,4.33,1.51,6.22,2.21a85.1,85.1,0,0,0-8.41,22.87c1-1.94-.12,3.39-.77,11.58.48,2.06.94,3.35,1.33,5.69q.4,2.4.85-2.52a94.32,94.32,0,0,1,2.56-17.14,82.26,82.26,0,0,1,13.25-28.64c.28-.42.64-.83.94-1.25l.19-.22h0a99.07,99.07,0,0,1,12.55-13.43,81.06,81.06,0,0,1,48.92-20.1,94.65,94.65,0,0,1,12.47,0c3,.2,5.91.74,9.05,1.12,3.06.72,6.38,1.34,10,2.49-.94.05-.51.46,1.73,1.43l4.76,1.94c2,1,4.52,2.13,7.49,3.72,5.85,3.46,11.65,7.18,16.48,12a83.51,83.51,0,0,1,26.58,58.86.87.87,0,0,1-.09.34l-.23-3.36c-1.57-27.7-18.35-53.68-42.49-67.07-1.79-1.15-3.82-2.08-5.85-3.13a83,83,0,0,0-19-6.2,4.42,4.42,0,0,0,1.77,1l7,2.51,7.24,3.4c-9.56-3.22-9.49-2.87-16.08-5l-5.54-1a80.09,80.09,0,0,0-18.86-.13c-3.2.6-6.24,1-8.72,1.67l-5.53,1.74c-1.27.35-3.24,1.36-5.17,2.05a82.75,82.75,0,0,0-24.48,14.28c-13.18,11.25-18.1,23.73-15.34,20.08,1-1.16.42.56-.94,3.43-1.11,3-3.1,7.14-4.34,11.17a56.17,56.17,0,0,0-3.52,15.52c-.29,3-.16,4.1.09,4.61s.48-1.55.52.19c.34,7.57.46,3.32,1.86-4.47a37.71,37.71,0,0,0-.23,6.66c.14-3.76,1.08-7.1,1.77-11.14l1.81-6.89,2.09-5.59c4.67-10.38,12.82-22.05,23.25-30a73.7,73.7,0,0,1,23-12.41c-.37.52-2.77,1.82-2.23,2s3.83-1.47,15.67-3.11l-2.16,1.15c8.27-1.16,17.3-.9,22.55.48a86.75,86.75,0,0,1,21.42,7.32c3.27,1.7,4.46,2.15,6.64,3.13l-.5-.52a72,72,0,0,1,15.33,14,88.64,88.64,0,0,1,10.68,18.21,82.81,82.81,0,0,1,5.6,22.53,49.65,49.65,0,0,1,.16,8.55c-.45,15-6.36,29.45-15.52,41.1-8.12,9.94-18.62,18-30.79,22.36a68.72,68.72,0,0,1-32.23,3.87,75.31,75.31,0,0,1-42.07-20.08c-1-.94-2.58-2.79-3.15-3.43-6-7.83-7.93-10.07-10.91-15.61a11.32,11.32,0,0,0-2.38-3.45c-.41-.42.29,1.47-.31.65-1.34-2.08-4.28-9.06-4-7.27.15,2.39-1.22-2.16-2.52-6a82.7,82.7,0,0,0,3.29,11.91c-2.45-5.91-2.82-7.13-3.54-8.62a30.46,30.46,0,0,1-1.25-3.21c-.39-1.65-.86-4.09-1.48-8l.65,5.31a87.3,87.3,0,0,1-3.24-12.82,76.89,76.89,0,0,0,4.84,26.93c-.26.1-1.34-1.87-.64.69a30.5,30.5,0,0,0,2.18,6,48.57,48.57,0,0,0,3.63,7,78.34,78.34,0,0,0,9.89,13.12c2.67,3.16,5.54,5.33,7.67,7.44,2.32,1.89,4.26,3.35,5.65,4.58a63.67,63.67,0,0,0,13.12,7.7c3,1.29,6.09,2.42,9.19,3.47l0,.14a80.72,80.72,0,0,1-26.32-13.38,58.52,58.52,0,0,0,7.75,5.42,62.11,62.11,0,0,0,8.11,4.33,81.62,81.62,0,0,0,43.41,6.77c11.6-1,25.81-6.63,19.53-3.55a74.24,74.24,0,0,1-19,5.91,44.76,44.76,0,0,1-6.53.52l.83-.37a81.35,81.35,0,0,1-14.57-.07c5.21.68,8.15.7,8.81.82.28.27.86.48.63.65-.7.47,2.92,1.21-8,1.07l-7.53-.87c-2.46-.28-4.44-.89-5-.88a32.74,32.74,0,0,1-8.92-2.45l-3.8-1.37-3.74-1.73c-2.4-1.08-4.43-2-5.21-2.46-2.08-1-.44.31-.38.72l-3.66-2.08,4.83,3,4.39,2.15a56.59,56.59,0,0,0,7.78,3.27l1.5.16a81.36,81.36,0,0,0,23.54,4.77,82.34,82.34,0,0,0,25.11-2.42c-1.29.4-2.06.7-2.78.9a86.35,86.35,0,0,0,10.49-2.73,29.71,29.71,0,0,0,4.37-.79c1.29-.16,6.13-2.43,8.12-3.41,15-8.12,27.22-19.08,35.7-33.36,2.26-3.37,4-7.58,5.51-10.7a98,98,0,0,0,6.44-27.17A87.4,87.4,0,0,0,438.35,291c-6.87-4.56-18-8.42-16.23-7,.9.88-1.67-.77-11.8-3.23-2.47-.59-5.26-.86-7.89-1.3-20-2.32-41,2.21-57.79,13.46-2.52,1.6-4.85,3.4-7.29,5.09a88.27,88.27,0,0,0-14.8,15.55,168.21,168.21,0,0,0-18.47-5.72,78.76,78.76,0,0,0-.39-9.81c-.33-2.61-.65-6.67-.93-11.37,0-.41,0-1.08-.06-1.85-.63.39-1.3.74-2,1.08.05,5.12.18,9.71.26,14.81,0,2.1,0,4.23.07,6.36-.88-.2-1.74-.49-2.63-.68-.1-6.5-.2-13-.3-19.35a142.69,142.69,0,0,0,21.54-14.48,137.15,137.15,0,0,0,25.7-29,128.89,128.89,0,0,0,18.93-47.66c.35,1.06-.63,6.35-.1,5.54.21-.42,1.1-2.31,1.85-7.21.41-2.44,1-5.6,1.56-9.67.22-4,.64-9.27.75-15,.33,1.55.49,3,.67,4.52.31-16.29.42-31.89.36-42.93A120.34,120.34,0,0,0,360,84.64c-3-7.14-4.75-9.19-7-13.52l.47,1.39A135.84,135.84,0,0,0,341,53a82.66,82.66,0,0,0-6.92-8.39c-2.27-2.47-4.15-4.87-6-6.51A127.37,127.37,0,0,0,292.21,12.7,130.37,130.37,0,0,0,245.27.39c-4.85-.2-11.8-.68-17.76-.13a132.08,132.08,0,0,0-84.16,35.22,128.09,128.09,0,0,0-25,31,130.56,130.56,0,0,0-14.82,37c-1.64,5.43-2,11.22-3,16.91-.4,5.62-.77,11.83-.81,17,0,10.35-.09,20.54-.14,30-.12,3.56.14,7.91.31,12,.12,2.06.14,4.12.35,6.17l.88,6.11.91,6.09c.38,2,1,4,1.43,6a91.26,91.26,0,0,0,3.45,11.78,131.38,131.38,0,0,0,24.48,42.75l6.49,7.18c3.49,3.76,6.75,6.51,9.42,9s5.39,4.1,7.69,5.81c4.55,3.5,9,5.51,14.5,8.9a38.2,38.2,0,0,0,7.91,3.22c1.08.31-2.52-1.65-.63-.93.59.29,1.35.62,2.22,1v.07c-30.52,4.23-61.15,16.91-85.41,36.51A174.8,174.8,0,0,0,71.1,350.51l-2.19,2.68c10.72-12.28,23.37-22.64,36.75-31.72a188,188,0,0,1,43.85-20.32,41.45,41.45,0,0,1,5.65-1.81,43,43,0,0,0-5.53,2.14A197.14,197.14,0,0,1,179,294.91c0,2.95-.1,5.4-.24,7.15-.28,3.64-.33,8-.32,13.81l-.07,7.63-.14.05L178,298c0,5.82-.07,11.3-.11,16.79,0,3.92,0,7.85,0,11.74L198.2,338.8c8.91,5.42,20.1,12.93,14.52,10.22-4.18-2-10.12-5.18-15.58-8L192.24,338l.8.1-11.11-6.27,6.49,4.16c.08.34.42.76.15.81-.76.14,1.57,2.18-6.59-2.24-2.86-1.54-7.7-4.3-9.36-5.11a5.62,5.62,0,0,0-.07-.81c-.28-1.27-.27-3.54-.29-8.47,0-4.23-.14-10.16-.3-11.69-.2-1.93-.49-.19-.81,0l-.12-3.49c0,6.78,0,11.29-.06,15.74l.16.64c-.25-.59-.52-1.17-.72-1.77a23.66,23.66,0,0,1-1.05-6.11l-4.55,1.16-7.69,2-7,2.6c-15,5.33-25,11.54-31.1,15-3.47,1.73-6.81,4.34-10.71,7.17-1.91,1.46-4.07,2.85-6.12,4.65l-6.46,5.87c-4.85,4-8.76,9-13.12,13.57l-.14-.06a156.11,156.11,0,0,1,43.51-36.32c-5.24,3.27-10.66,6-15.26,9.76l-7.1,5.29c-2.32,1.8-4.37,3.89-6.57,5.82C75.65,369,60.27,394.39,51.6,421c-1.32,5.39-3.1,11.1-4.24,16.59l-2.51,14.84c-.66,8.29-1.17,12.2-1.11,5.56-.19-10,2.18-24.34,5.43-37.23.38-1.67,2.75-7.65,4.17-11.64l-.25,1.62c.81-2.2,1.44-4.34,2.31-6.34l2.76-5.9a99.89,99.89,0,0,1,6.56-12.69A75.52,75.52,0,0,0,59,395.93l-2.27,4.56c-.46.38-1.11,1.29-1.08.82.2-1.31-3.56,4.33,5.38-13.93,2.11-3.56,4.71-8.26,7.2-12.12,2.68-3.72,4.9-6.84,5.45-7.74a50.33,50.33,0,0,1,3.4-4.85l7.54-8.37a185.39,185.39,0,0,1,19-17.42c3.3-2.72,0-.64-.53-.61l6.13-4.73c-6,4.54-11.22,8.05-15.22,12-4.15,3.79-8,7-11.17,10.8l-1.55,2.25c-5.61,5.64-9.86,11.85-14.34,17.65-2.1,3-3.87,6.16-5.8,9.21a73,73,0,0,0-5.26,9.43l-4.75,9.9c-1.39,3.43-2.58,7-3.91,10.6l-2,5.49-1.47,5.82c-.89,4-2.24,7.95-2.85,12.25a50.19,50.19,0,0,1,1.23-6.67,82.26,82.26,0,0,0-2.25,11.37l-1.51,9.66c-.41,2.66-.72,3.58-1.17,8l-.55,7.39a31.17,31.17,0,0,0,.81,9.4,34.65,34.65,0,0,0,14.23,20.49,34.16,34.16,0,0,0,11.41,5,50,50,0,0,0,11.79.94l43.8.15,21.48,0,101.24-.49,123.29-.87c14.84-.16,36.16-.22,32.25-.85-1-.21-.32-.15,3.38-.41a31.8,31.8,0,0,0,27.3-20,32.44,32.44,0,0,0,2.17-14.25Zm-59.22-21.69a75,75,0,0,1-33.52-21.68l.71.49a38.68,38.68,0,0,0,4.62,4.69c2.62,2.59,5.7,4.55,8.65,6.74,5.24,3.19,10.73,6.3,16.48,8.13a52.46,52.46,0,0,0,5.06,2Zm99.88-40.51a27,27,0,0,1-1.93,4.33,62.22,62.22,0,0,1-3.81,7,91.16,91.16,0,0,0,4.37-8.79l-.17.25-2.72,5.69-3.52,5.89c6.85-11,10.39-23.69,11.82-29.52A85.29,85.29,0,0,1,470.17,396.34ZM262.45,347.63l-9.5,5.53,7.21-4.51-.25.1-9.76,5.9c9.37-6.08,19.08-11.95,23.72-14.37ZM287.82,332c-.1.06-.17,0-.29.05l2.28-1.44,4.08-2.47,0-10,.27,0q0,5,0,10.07Zm6-23.09.32.06v5.76l-.29-.05Zm23.82,12-.41-.15c-5-1.75-9.35-3-13.2-4,0-2,0-3.89,0-5.68a155.13,155.13,0,0,1,16.62,5.09C319.63,317.76,318.61,319.33,317.65,320.94Zm-16.48-4.81c-.87-.2-1.78-.42-2.59-.58q0-2.87-.09-5.72c.84.18,1.74.39,2.61.59C301.12,312.3,301.14,314.2,301.17,316.13Zm-2.73-9.44v-.36C299.17,306.63,299.13,306.73,298.44,306.69Zm-4.24-17q0,8.24,0,16.47l-.34,0L293.76,290a27.92,27.92,0,0,1-9.67,3.43c1.91-.75,3.53-1.45,4.67-2,2.76-1.12,5.53-2.44,8.31-3.9A26.09,26.09,0,0,1,294.2,289.73ZM208.86,15.42c-4,1.15-7.9,2.07-11.77,3.38-3.79,1.56-7.8,2.8-11.81,4.73a146.88,146.88,0,0,0-17.79,9.52l8.59-5.33,5-2.48-.46.17-4.47,2.18-4.34,2.65a78.23,78.23,0,0,0-9.11,6.05C178.87,23.33,199.45,17,208.86,15.42ZM138.47,261.08a106.24,106.24,0,0,1-8.17-9.77,145.23,145.23,0,0,1-11.69-17.69c-5.45-10.57-10-21.92-12.45-33.37-1.08-3.9-1-7-1.47-10.38l.74,3.8a130.73,130.73,0,0,0,34.28,68.46Zm45.47,61.36-.16-.53.23-27.6.19.07c0,3,0,5.9.06,8.88,0,5.87,0,11.86,0,17.62A8,8,0,0,1,183.93,322.45Zm4.95-.63-1-.62c-.11-.08,0,0-.08-.07l0-.06-.06-.11.05-.14c0-.11,0,.49,0-1.82l0-9.77c0-4.52-.07-9.11-.1-13.7,3.63,1.12,6.26,1.79,4.64,1.07-2.08-1-.9-.74,1.72.05s6.85,1.58,10.66,2.46c-3.77-1.09-7.27-1.82-10.82-3.11-1.85-.73-3.81-1.45-5.86-2.23l.48-.06c6.2,2.18,8.25,2.52,10.64,2.86,3.08.36,6.64,1.68,21.34,3.52l-9.8-1.63c4.06.22,7.89.63,11.77.64l12-.45c-14.9-.26-26.35-2.26-36.61-5.39,1.18,0,2.36-.16,3.54-.17,5.76-.25,13.12-.15,17.35-.3,25.7-.52,14.67-1.78-18.14-1.89-2.87,0-5.78.24-8.67.41q-2.58-.93-5.1-1.95c.11-.25,3.88.77-.39-1-2.82-1.24-6.14-3.13-9.94-5s-7.63-4.56-11.8-7c-3.92-2.79-8-5.69-11.71-8.78-3.52-3.33-7.33-6.19-10.1-9.52A109.51,109.51,0,0,1,124.63,233a178.19,178.19,0,0,1-10.15-24.13l-2.1-8.16-1-4.09-.62-4.17.14-.06a124.74,124.74,0,0,0,13.77,38.82c-1.11-2-2.18-4-3.09-6.13-2.47-4.66-4.07-9.6-5.86-14.46a128,128,0,0,1-6.29-37.19c-.21-12.35,0-24.43-.05-36.5.06-4.79.49-10.15.84-15.06.86-4.89,1.54-9.49,2.41-13,2.06-7,3.2-10.23,2-4.58-2.13,8.39-3,21-2.85,32.27,0,1.45,0,6.86,0,10.45l-.32-1.35.34,23.3.23-14.08c.25-.45.44-1.38.62-1,.51,1.06,1.06-4.51,1.47,12.43,0,3.46.27,7.89.58,11.66a42.15,42.15,0,0,0,.88,7.73c.32,1.15.6,2.59,1,4.75a66.12,66.12,0,0,0,1.85,9,104.08,104.08,0,0,0,7,19.84c1.69,3,.59.1.72-.36l2.81,5.55c-1.29-2.73-2.55-5.2-3.57-7.56l-2.46-6.78c-1.73-4.18-2.38-8.16-3.45-12l-.9-2c-2.43-12.63-2.53-23.89-2.39-35.88s-.5-24.28.56-38.12c-.16,2.69-.06,3.95-.1,5.46l.28-4.84.71-4.41c.47-2.81.81-5.4,1.28-7.73a64.54,64.54,0,0,0,2.34-6c.34-.86.83-3.2,1.74-5.6l2.44-6.45a113.4,113.4,0,0,1,18-31.11,130.06,130.06,0,0,1,26.1-23.75,136.71,136.71,0,0,1,15.12-8.49,116.26,116.26,0,0,1,38.77-11A119.56,119.56,0,0,1,309.59,44,121.36,121.36,0,0,1,340.41,82.2c3,5.32,5.43,12.3,7.41,17.42,1.47,5.28,2.53,8.71,2.43,7.08s1.68,2.47,3.25,18.17c.12,3.86.51,8,.51,12.13v23.26l0,11.62-.58,11.46A119.36,119.36,0,0,1,340.17,227c-2.14,4-4.66,7.68-7.07,11.45a16,16,0,0,0,1-1.66,119.5,119.5,0,0,1-72.35,50.72c1.6-.15.43.35-2.68,1.3a129.92,129.92,0,0,1-14.61,2.27c-3.06.74-5,1.36-8.72,2.05-2.54.48-1.23.65,4.08.52,2.64-.17,6.34.06,10.94-.81l7.67-1.17c2.78-.55,5.76-1.45,9-2.27a123.77,123.77,0,0,0,45-23.57c8.29-7.16,16.87-16.24,21.93-23.94,15.42-22.46,23.52-50.37,21.77-81.17-.05-6.65-.1-13.28-.15-19.63a155.54,155.54,0,0,0-2.77-30.3c.53,1.3.82.39-.07-3.37l-1.9-8c-1.06-3.38-2.61-7.52-4.52-12.53A130,130,0,0,0,330,59.13C308.3,31.22,273.82,14.05,238.58,13a2,2,0,0,1-.53-.13l5.38.21a54.2,54.2,0,0,1,8.24.88c2.73.44,5.49.75,8.19,1.31,5.34,1.45,10.8,2.47,15.93,4.6,10.51,3.51,20.28,9,29.38,15.22s17,14.17,24.28,22.54a131.1,131.1,0,0,1,17.31,28.28c1.45,3.1,2.35,6.59,3.66,10a60.24,60.24,0,0,1,2.25,7.68c.62,2.6,1.44,5.16,1.89,7.8.72,5.31,1.91,10.57,1.94,15.94a7.7,7.7,0,0,0,.41-3.15c0-3.72-.63-7.76-1-12s-1.62-8.59-2.42-13c2.37,8.07,3.44,12.11,3.81,15.6a66.32,66.32,0,0,1,1,12l.28,9.32c0,8.43.12,20.11.18,30.68a170.55,170.55,0,0,1-1.16,24.38,49.2,49.2,0,0,1-1.53,9.27,123.26,123.26,0,0,1-20,43.71,155.7,155.7,0,0,1-12.82,15.44c-4.43,4.06-8,7.93-11.31,10.36-6.36,5.15-9.16,7.51-5.83,5.59,4.67-2.69-9.11,8.76-23.39,14.44l-9.29,3.46c-2.81.94-5.41,1.51-7.68,2.17a82.41,82.41,0,0,1-10.74,2.47c-5.36,1-7.33,1.64-8.21,1.85-.67.24,3,.2-.21.54-7,.64-8.57,1-6.48,1.07a76.67,76.67,0,0,0,15.37-1,87.49,87.49,0,0,1-12.67,1.87l5.35-.21,5.28-.69c3.53-.54,7.22-.79,11.09-1.91a125.48,125.48,0,0,0,16.66-5.07c-.12,3.88-.2,8.12-.25,12.6,0,3.59,0,7.27,0,10.93l0,2.69,0,0,.08.1,0,.12,0,.06,0,0-.75.46-3.92,2.36-39.25,23.52-2.45,1.48-.08.07-.14.12-.21-.06-4.74-2.78-12-7.13C207.92,333.42,197.71,327.3,188.88,321.81ZM87,368.87c4.56-4.94,8.93-10.06,14.12-14.35,4.8-4.72,10.37-8.51,15.73-12.54,11.21-7.31,23-14,35.77-18.11l-1.5.77-6.21,2.19c-2,.87-4,1.86-5.94,2.8-3.25,1.68-6.68,3-9.74,5l-9.34,5.72c-2.62,1.59-5,3.64-7.46,5.43s-5.08,3.53-7.27,5.72c-4.48,4.23-9.3,8.07-13.16,12.71-2.74,3.13-5.21,5.07-7.42,7.89A24.39,24.39,0,0,1,87,368.87Zm57,129-24-.14,18.58-.15-.57,0-24.91,0c24.38-.39,49.16-.43,60.56-.11Zm-41,11.73c34.18,0,66.93.91,53.54,1.62l-8.07.17-62,.65-9-.3-5.28-.16-1.53,0-2.13-.13a32.57,32.57,0,0,1-4.51-.56A43.56,43.56,0,0,1,38.28,496.5c-.08.14-2.57-2.37.21.92,4.8,5.37,7.22,6.7,4.71,5.08a43.1,43.1,0,0,1-6.33-6.07,44,44,0,0,1-8.45-15.78,44.85,44.85,0,0,1-1.5-7.31,43,43,0,0,1-.25-6.89l.53-11.21c.11-1.87.15-3.75.32-5.62l.82-5.57L30,432.94c3.31-14.53,7.64-28.62,13.94-40.62,2.42-4.85,5.35-10.36,5-9.31-1.23,3-2.37,6.44-3.74,10a95.76,95.76,0,0,0-3.85,11.56c-.49,1.77-1.49,4.77-3.08,9.29s-2.9,10.85-5.08,18.92l-2.33,14.8c-.8,4.94-.7,10-1.08,15l-.19,3.76-.09,1.9.1,2.4a40.75,40.75,0,0,0,11.27,26,40.9,40.9,0,0,0,16,10.45,42.12,42.12,0,0,0,9.41,2.19c1.56.14,3.3.21,4.72.25H103Zm300.94-4.89a36.54,36.54,0,0,0,16.13-5.5,37.94,37.94,0,0,1-20,7c-2,.13-3.36.09-4.91.11l-4.6,0-9.42,0c-12.73,0-26.07,0-39.38-.24-4-.07-19.1,0-23.3.11-10.27.27-19.14.59-24.84.93-5.45.32-13.35.47-27.18.37-16.28-.12-40.17.1-44.38-.6-2-.34-18.35-.63-27.17-1-2.85-.11-4.41-.27-3.08-.39l10.35-.63,85.63-.51c18.06-.14,32.82-.4,55.06-.26l47.95,0,6,.55A37,37,0,0,0,403.9,504.67ZM217.26,370.43c3.72,2.69,2.56,2.22-5.64-2.69-10.66-6.38-22.18-12.93-31.71-19.21-1.91-1.26-4.08-2.78-3.63-2.65,2.71.78,6,1.89,9.43,3.14,1.5.54,4.85,2.46,11,6.2l37.77,22.87,17.93-10.75c13.42-8.06,26.74-15,21.85-11.22-.48.37-1.85,1.26-3.08,2l-25.52,16.07-11.18,6.2-4.39-2.83-12.8-7.71C217.2,370,216.14,369.63,217.26,370.43ZM124.64,231.19c1.46,2.66,3,5.29,4.63,8C127.59,236.58,126.12,233.88,124.64,231.19ZM135,95c-3.89,9.28-5.9,19.53-7.13,29.59-.69,9.59-.52,21.52-.79,31.82-.1,4.17-.29,9-.41,8.18-.72-5-1.44-11.1-2.15-17.73a150,150,0,0,1,.18-22,111,111,0,0,1,39-74.16,104.94,104.94,0,0,1,29.06-17c7.79-2.49,11.27-3.38,6.69-1.29-.9.41-3.38,1.38-5.61,2.23A105.36,105.36,0,0,0,156.35,61l-4.75,4.76c-1.65,1.82-3.3,4-5.38,6.6a40.09,40.09,0,0,0-3.86,5.81,68,68,0,0,0-4.28,7.59c.15.05-.47,1.78.6-.18C142.66,79.31,141.27,80.92,135,95ZM239.75,21.93a89.79,89.79,0,0,0-12.63-.37c-2.24,0-3.48-.1-2.45-.27,2.22-.36,6.26-.8,8.14-1a114.44,114.44,0,0,1,64.47,18.11c11.93,7.9,21.18,15.69,31.55,30.08a123.53,123.53,0,0,1,16.54,34.26l1.31,9.61.64,10.93a120.6,120.6,0,0,0-20.58-54.36c-1-1.24-3-4.36-5.52-7.2L314.94,55l-8.45-7.14-7-4.61c-1.73-1.23-4-2.44-7-4.13l-4.95-2.91L281.12,33a72.82,72.82,0,0,0-9.46-3.86,74.09,74.09,0,0,0-10-3l-4.54-1.23-4-.69a36.4,36.4,0,0,1-4.88-1.12C247.54,22.67,244,22.24,239.75,21.93ZM200.3,275.14c-2.93-1.08-8.51-2.64-12.08-4.66a105.37,105.37,0,0,1-30.27-21.19l3.39,2.47L158.18,249a116.14,116.14,0,0,1-19.32-27.46A107.61,107.61,0,0,1,129,189.81l.52,2.3c.74,3.44,1.75,6.85,2.58,10.29,1.09,3.36,2.41,6.63,3.53,9.9,9.88,24.38,30.18,44.9,53,55.94l3.83,2,3.64,1.44,6.16,2.52c3.7,1.12,6.29,2,7.57,2.51C212.47,277.66,209.73,277.6,200.3,275.14ZM408.88,451.2l.75-.17C409.38,451.09,409.14,451.15,408.88,451.2ZM337.34,297.94h0c.33-.27.62-.57,1-.83ZM485.2,394c-.18.79-.88,2.87-1.52,4.73a97.72,97.72,0,0,1-19.25,32.82,112.57,112.57,0,0,1-9.48,8.33,127.89,127.89,0,0,1-10.45,7.61c.1.12-1.09,1.07.55.2,5.34-3.15,4.3-1.71-7,4.79-14.92,7.88-33.07,12.37-48.56,11.16-3.09-.24-6.65-.63-6-.71,3.74-.58,8.23-.81,13-1.95,1-.21,2.8-.37,5.5-.61,2.67-.51,6.3-.85,10.92-1.86,22.17-4.59,42.57-18,56.08-36.3C481.73,405.76,486.44,385.72,485.2,394Zm-64.57-115.8a77.67,77.67,0,0,0-7.47-3.13c12.25,2.82,27.16,9,38.64,19.62l5,4.55c2,1.95,3.85,4.06,4.74,4.91a77.14,77.14,0,0,1,5.5,6.17,54.87,54.87,0,0,1,3.94,4.91c1,1.29,2.1,2.91,3.49,5.1,1.18,2.3,2.67,5.17,4.26,8.93l2.64,7.36c.79,2.6,1.4,5.28,2,7.73a45.69,45.69,0,0,1,1.25,10.34c-.2,1.23.29,10.78-.61,15.86-.19,1.65-.4,2.53-.48,1.76-.16-1.67-.25-4.62-.33-6-.11-17.48-4.71-33.63-12.81-46.78-5.37-8.81-10.8-15.42-20.31-23.78a94.15,94.15,0,0,0-23.29-14.13ZM316.12,425.68a24.43,24.43,0,0,0,2.23,2.53,99.7,99.7,0,0,0,20.05,18.86,103,103,0,0,0,24.79,12.64,17.94,17.94,0,0,1-1.94-.45c-2.8-1-5.66-2-8.42-3.14l-8-3.88c-19.44-10.63-35.67-28.47-43.62-48.4a73.9,73.9,0,0,1-4.78-18.42c-.12-2.28.71-.16,3,7.36.75,2.41,2.56,6.7,3.65,9.79A103.11,103.11,0,0,0,318.61,428,24.38,24.38,0,0,1,316.12,425.68Zm101.79-63.48-.6-.1c1.43.12,3.39.2,1.9.17C418.74,362.27,418.14,362.24,417.91,362.21Zm-.6-.1-.84-.09A8.37,8.37,0,0,1,417.31,362.11Zm-67.18-1.69c0,.16-.53.35.1.48a46.26,46.26,0,0,0,7.28.14,27.31,27.31,0,0,1,4.25.14,21.77,21.77,0,0,0,3.59.19c.77,0,1.54,0,2.31,0v.08l-7,.13c1.51.06,2.93.06,4.36.06,3.47,0,7,0,10.39,0,2.71,0,6.2.42,4.6.74-1.2.23-2.94.44-4.54.65-.21,0-1,0-1.48,0l.19-.19-3.31.19,2,.13c.06.14.2.25.14.35-.15.29.64.6-1.77.84a26.31,26.31,0,0,0-2.78.29,5.94,5.94,0,0,1-2,.17,25.67,25.67,0,0,0-3,.17c-.5.12,0,.28,0,.46l-.9.07,4.08,0,.32-.21c1.86.06,3.51.14,5.2.15s3.43-.05,5.46-.09l-.79.14,2.5.07a3.17,3.17,0,0,0,.94.43,12,12,0,0,0,1.84.14c-1,0-2,.09-.23.09.86,0,1.82,0,2.55,0,.9,0,1.88-.05,2.83-.08,0,0,0,.1,0,.11-.4.5-.28,3.34-.34,5.28a10.91,10.91,0,0,0,.21,3.23,22.76,22.76,0,0,1,.53,3,24.16,24.16,0,0,1,.06,2.77c-.29,3.16-.06,6.35-.07,8.92.21-.6.39-1.17.58-1.65s.41-1,.62-1.44c0-1.71-.08-3.88,0-5.7.08-2.64-.07-4.4-.15-6.54-.09-2.53-.16-5.19-.23-8l1.51,0c0,.84,0,1.68,0,2.51.14,5,.26,10,.5,14.66.09,1.76.13,4.3.48,3.83.19-.25.2.4.15,2.67,0,.55,0,1.16,0,1.74,0,.87,0,1.29,0,1.54,0,0,0,.26,0,1.83,0,.65-.07,1.29-.1,1.94l-.05-.28c0,4.31.08,8.63.12,13.06.29-.46.45.73.47,2.54a9.83,9.83,0,0,1,.92,1.25c.4.72.55-.74.46-4.51-.05-2.36-.07-4.79-.1-7.19,0-1.54,0-3.29-.07-4.58-.17-3.06-.3-6.23-.37-9.58a14.62,14.62,0,0,0,.18-3.29c0-1.53,0-3.07,0-4.59q0-5.64.06-11.27l.14,0q.06,7.85.12,15.7c0,.48-.08,1-.09,1.5,0,1.5,0,3,0,4.52.11-.13.23,0,.33-.44.25-1,.5-2.28.76-3.52a9.77,9.77,0,0,1,0,3.9c0,.23-.06.83-.07,1.3-.05,2.4.19-3.2.43-2.09a6.67,6.67,0,0,1,.17,1.29c0,2.21,0,4.44,0,6.65,0,4,.37,7,.79,6,.29-.72.89,1.67.93,3.72.07,3.92.35,4.76.62,5,.1.09.23-.39.3,0,.32,1.86.55.83.74-1.16l.26,1.68c.07-.95.17-1.82.2-2.87s0-2.69,0-3.34c.28-2.91.23-6.46.25-9.8,0-2.14-.07-4.32-.11-6.72.41.26.89,2.78,1-3.47l.46.6c.08-2.21.1,5.28.23,3.84a44.22,44.22,0,0,0,.11-6.07,8.13,8.13,0,0,0-.39-1.94l-.11.19c.06-1.87.07-4.22.2-5.5a78.85,78.85,0,0,0,.29-8.35,10.11,10.11,0,0,0,2.57-.21,22.76,22.76,0,0,1,3-.53,24.16,24.16,0,0,1,2.77-.06c3.16.29,6.35.06,8.92.07-.6-.21-1.17-.39-1.65-.58s-1-.41-1.44-.62c-1.71,0-3.88.08-5.7,0-2.64-.08-4.4.07-6.54.15l-1.93.06c0-.5,0-1-.06-1.48,3.81-.11,7.59-.21,11.15-.4,1.76-.09,4.3-.13,3.83-.48-.25-.19.4-.2,2.67-.15.55,0,1.16,0,1.74,0h2.45c.65,0,1.29.07,1.94.1l-.28.05,13.06-.12c-.46-.29.73-.45,2.54-.47a9.83,9.83,0,0,1,1.25-.92c.72-.4-.74-.55-4.51-.46-2.36.05-4.79.07-7.19.1-1.54,0-3.29,0-4.58.07-2.8.16-5.69.27-8.71.35a16.47,16.47,0,0,0-3.23-.16c-1.53,0-3.07,0-4.59,0l-7.6,0v-.19l12.06-.09c.48,0,1,.08,1.5.09,1.5,0,3,0,4.52,0-.13-.11,0-.23-.44-.33-1-.25-2.28-.5-3.52-.76a16.43,16.43,0,0,1,2.46-.15c-.36-.05-.54-.11-.28-.16a6.67,6.67,0,0,1,1.29-.17c2.21,0,4.44,0,6.65,0,4,0,7-.37,6-.79-.72-.29,1.67-.89,3.72-.93,3.92-.07,4.76-.35,5-.62.09-.1-.39-.23,0-.3,1.86-.32.83-.55-1.16-.74l1.68-.26c-.95-.07-1.82-.17-2.87-.2s-2.69,0-3.34,0c-2.91-.28-6.46-.23-9.8-.25-2.14,0-4.32.07-6.72.11.26-.41,2.78-.89-3.47-1l.6-.46c-2.21-.08,6.21-.1,4.77-.23a44.22,44.22,0,0,0-6.07-.11,8.13,8.13,0,0,0-1.94.39l.19.11c-1.87-.06-4.22-.07-5.5-.2-1.45-.15-3.34-.24-5.33-.28,0-1.49,0-3,0-4.46,0-2.26-.06-4.51-.09-6.76,0-.06,0-.16,0-.44.15-4.25.21-8.33.06-12.61,0-.37,0-1,0-1.24a22.3,22.3,0,0,0-.17-5.07,1.65,1.65,0,0,0-.36-1.09c-.11-.14-.22.38-.32.13-.24-.64-.5-2.58-.71-2.12s-.38-.62-.54-1.65l-.18,3.12c-.18-3.22-.7-1.27-.81-5.2l-.08,1.32-1.19-3.17v6.6c-.16,0-.35-.53-.48.1a46.26,46.26,0,0,0-.14,7.28,27.31,27.31,0,0,1-.14,4.25,21.77,21.77,0,0,0-.19,3.59c0,.77,0,1.54,0,2.31h-.08l-.13-7c-.06,1.51-.06,2.93-.06,4.36,0,.17,0,.2,0,.32,0-1.2,0-3.86,0-1.63,0,2.71-.42,6.2-.74,4.6-.19-1-.36-2.32-.53-3.64,0,2.78-.08,7-.13,6.2l-.13,2c-.14.06-.25.2-.35.14-.29-.15-.6.64-.84-1.77a26.31,26.31,0,0,0-.29-2.78,5.94,5.94,0,0,1-.17-2,25.67,25.67,0,0,0-.17-3c-.12-.5-.28,0-.46,0l-.07-.9c0,1.18,0,2.06,0,2.88l-.06,2.18a3.16,3.16,0,0,0-.43.94,11.91,11.91,0,0,0-.14,1.87c.12,3.64-.09,7-.08,10.51,0,.67,0,1.36,0,2h-4.15c.1-1.14.16-2.48.16-3.87,0-4.48,0-9,.11-13.44a11.09,11.09,0,0,0-.19-3.27c-.41-.94-.82,9.89-1.23,9.18-.07-.12-.18.57-.23,1.16,0,0,0,0,0,.06.06.28.14.09.26-.52.07-.36.17-.06.26-.07,0,.85,0,2,0,2.5-.1,1.05-.24,1.76-.34,2.43.1,2,.2,3.92.3,5.84-1.77,0-3.55,0-5.32,0-3.42,0,4,.12.55.14-2.89,0-6,0-8.68-.07-4.25-.15-8.33-.21-12.61-.06-.37,0-1,0-1.24,0a22.3,22.3,0,0,0-5.07.17,1.65,1.65,0,0,0-1.09.36c-.14.11.38.22.12.32-.64.24-2.58.5-2.12.71s-.62.38-1.65.54l3.12.18c-3.22.18-1.27.7-5.2.81l1.32.08-3.17,1.19ZM415.59,364c.1-.1.11-.19,0-.26,2.32,0,4.75,0,4.28.06ZM392,387.81s0,0,0,0C392,388,392,388.1,392,387.81Zm.55-20.19c0-.51,0-1,0-1.52h.11q0,.76,0,1.52Zm5.29-37.06.12.21c0,.56-.06,1.12-.05,1.67,0,.93,0,1.85,0,2.78,0,1.56,0,3.14,0,4.67a8.26,8.26,0,0,1-.21,1.37l-.09-.51Q397.74,335.66,397.83,330.56Zm-5.16,25.49h-.12c0-.84,0-1.68,0-2.66C392.6,354.3,392.64,355.19,392.67,356.05Zm-.23-1.84.07,1.85h-.14C392.39,355.59,392.41,355,392.44,354.21Zm-2-14.26.09.14c-.05,1.84-.13,3.48-.14,5.15C390.41,344.49,390.43,341.61,390.45,340Zm0-.9,0-.11C390.48,338.77,390.49,338.74,390.49,339.05Zm-2.33,24.33v0l.21,0Zm-.45-.06v.09c-.93.07-1.84.15-2.86.19-.52,0-1.37,0-2.85-.08l2.21-.09-.07,0-3,0A49.15,49.15,0,0,1,387.71,363.32ZM357.62,358c.56,0,1.12.06,1.67.05.93,0,1.85,0,2.78,0,1.56,0,3.14,0,4.67,0a8.25,8.25,0,0,1,1.37.21l-.51.09-10.2-.18Zm26.18,13.4c-.06.07-.16.15.12.2,1.19.22.87.33-1.61.34-3.23,0-6.66.18-9.63-.09-.59-.06-1.28-.16-1.16-.23a24.27,24.27,0,0,1,2.52-1.23,11.09,11.09,0,0,1,3.27-.19c4.44.07-1.81.12,2.66.11,4.06,0,8,.52,6.36.93a7.1,7.1,0,0,1-1,.1Zm-26.92-.68-.66.25.66-.05,10.69,1-.38.1c-1.14,0-2.29,0-3.4,0-4.22-.06-8.59.07-12.67-.2-3.84-.26-5.19-.84-2.12-1.18a19.75,19.75,0,0,1,2-.1C352.94,370.62,354.81,370.68,356.88,370.73ZM393,335.67a16.24,16.24,0,0,0-.07,2.19l-.12-.9c0-.21,0-1,0-1.48Zm-9,8.09a15.9,15.9,0,0,0,.08,2.13C383.84,348.55,384,340.57,384,343.76ZM385.23,330l-.25-.66.05.66-1,10.69-.1-.38c0-1.14,0-2.29,0-3.4.06-4.22-.07-8.59.2-12.67.26-3.84.84-5.19,1.18-2.12a19.75,19.75,0,0,1,.1,2C385.34,326.1,385.28,328,385.23,330Z"/></symbol><symbol id="btnBack" viewBox="0 0 219.151 219.151">
<g>
	<path d="M109.576,219.151c60.419,0,109.573-49.156,109.573-109.576C219.149,49.156,169.995,0,109.576,0S0.002,49.156,0.002,109.575
		C0.002,169.995,49.157,219.151,109.576,219.151z M109.576,15c52.148,0,94.573,42.426,94.574,94.575
		c0,52.149-42.425,94.575-94.574,94.576c-52.148-0.001-94.573-42.427-94.573-94.577C15.003,57.427,57.428,15,109.576,15z"/>
	<path d="M94.861,156.507c2.929,2.928,7.678,2.927,10.606,0c2.93-2.93,2.93-7.678-0.001-10.608l-28.82-28.819l83.457-0.008
		c4.142-0.001,7.499-3.358,7.499-7.502c-0.001-4.142-3.358-7.498-7.5-7.498l-83.46,0.008l28.827-28.825
		c2.929-2.929,2.929-7.679,0-10.607c-1.465-1.464-3.384-2.197-5.304-2.197c-1.919,0-3.838,0.733-5.303,2.196l-41.629,41.628
		c-1.407,1.406-2.197,3.313-2.197,5.303c0.001,1.99,0.791,3.896,2.198,5.305L94.861,156.507z"/>
</g>
<g>
</g>
<g>
</g>
<g>
</g>
<g>
</g>
<g>
</g>
<g>
</g>
<g>
</g>
<g>
</g>
<g>
</g>
<g>
</g>
<g>
</g>
<g>
</g>
<g>
</g>
<g>
</g>
<g>
</g>
</symbol><symbol id="comp" viewBox="0 0 100 100">
  <path d="M65.625 81.25H62.5V78.125H65.625V81.25ZM59.375 81.25H56.25V78.125H59.375V81.25ZM53.125 81.25H50V78.125H53.125V81.25ZM46.875 81.25H43.75V78.125H46.875V81.25ZM40.625 81.25H37.5V78.125H40.625V81.25ZM34.375 81.25H31.25V78.125H34.375V81.25ZM28.125 81.25H25V78.125H28.125V81.25ZM21.875 81.25H18.75V78.125H21.875V81.25ZM15.625 81.25H12.5V78.125H15.625V81.25ZM9.375 81.25H6.25V78.125H9.375V81.25Z"/>
  <path d="M9.375 20.3125H6.25V12.5H14.0625V15.625H9.375V20.3125Z"/>
<path d="M65.625 87.5H62.5V84.375H65.625V87.5ZM59.375 87.5H56.25V84.375H59.375V87.5ZM53.125 87.5H50V84.375H53.125V87.5ZM46.875 87.5H43.75V84.375H46.875V87.5ZM40.625 87.5H37.5V84.375H40.625V87.5ZM34.375 87.5H31.25V84.375H34.375V87.5ZM28.125 87.5H25V84.375H28.125V87.5ZM21.875 87.5H18.75V84.375H21.875V87.5ZM15.625 87.5H12.5V84.375H15.625V87.5ZM9.375 87.5H6.25V84.375H9.375V87.5Z"/>
<path d="M81.25 12.5H93.75V15.625H81.25V12.5Z"/>
<path d="M81.25 18.75H93.75V21.875H81.25V18.75Z"/>
<path d="M81.25 25H93.75V28.125H81.25V25Z"/>
<path d="M65.625 34.375H57.8125V31.25H62.5V26.5625H65.625V34.375Z"/>
<path d="M95.3125 6.25H79.6875C77.0988 6.25 75 8.34885 75 10.9375V65.625H100V10.9375C100 8.34885 97.9012 6.25 95.3125 6.25ZM96.875 62.5H78.125V10.9375C78.125 10.0746 78.8246 9.375 79.6875 9.375H95.3125C96.1754 9.375 96.875 10.0746 96.875 10.9375V62.5Z"/>
<path d="M67.1875 71.875H4.6875C2.09885 71.875 0 73.9738 0 76.5625V89.0625C0 91.6512 2.09885 93.75 4.6875 93.75H67.1875C69.7762 93.75 71.875 91.6512 71.875 89.0625V76.5625C71.875 73.9738 69.7762 71.875 67.1875 71.875ZM68.75 89.0625C68.75 89.9254 68.0504 90.625 67.1875 90.625H4.6875C3.82462 90.625 3.125 89.9254 3.125 89.0625V76.5625C3.125 75.6996 3.82462 75 4.6875 75H67.1875C68.0504 75 68.75 75.6996 68.75 76.5625V89.0625Z"/>
<path d="M85.9375 71.875C81.6246 71.8803 78.1303 75.3746 78.125 79.6875V85.9375C78.125 90.2519 81.6231 93.75 85.9375 93.75C90.2519 93.75 93.75 90.2519 93.75 85.9375V79.6875C93.7447 75.3746 90.2504 71.8803 85.9375 71.875ZM90.625 85.9375C90.625 88.5262 88.5262 90.625 85.9375 90.625C83.3488 90.625 81.25 88.5262 81.25 85.9375V79.6875C81.2584 77.7084 82.5089 75.9476 84.375 75.2876V81.25H87.5V75.2876C89.3661 75.9476 90.6166 77.7084 90.625 79.6875V85.9375Z"/>
<path d="M67.1875 6.25H4.6875C2.09885 6.25 0 8.34885 0 10.9375V48.4375C0 51.0262 2.09885 53.125 4.6875 53.125H26.5625V59.6359C26.561 61.2167 25.2792 62.4985 23.6984 62.5H18.75V65.625H50V62.5H45.0516C43.4708 62.4985 42.189 61.2167 42.1875 59.6359V53.125H67.1875C69.7762 53.125 71.875 51.0262 71.875 48.4375V10.9375C71.875 8.34885 69.7762 6.25 67.1875 6.25ZM28.9566 62.5C29.4373 61.6219 29.689 60.6369 29.6875 59.6359V53.125H32.8125V59.7656H35.9375V53.125H39.0625V59.6359C39.061 60.6369 39.3127 61.6219 39.7934 62.5H28.9566ZM68.75 48.4375C68.75 49.3004 68.0504 50 67.1875 50H4.6875C3.82462 50 3.125 49.3004 3.125 48.4375V40.625H68.75V48.4375ZM68.75 37.5H3.125V10.9375C3.125 10.0746 3.82462 9.375 4.6875 9.375H67.1875C68.0504 9.375 68.75 10.0746 68.75 10.9375V37.5Z"/>
<path d="M89.0622 47.097V43.75H85.9372V47.097C82.8901 47.8836 80.9026 50.8141 81.2993 53.936C81.6961 57.058 84.3526 59.3987 87.4997 59.3987C90.6469 59.3987 93.3034 57.058 93.7001 53.936C94.0969 50.8141 92.1094 47.8836 89.0622 47.097ZM87.4997 56.25C86.0875 56.2538 84.8493 55.307 84.4831 53.9429C84.1169 52.5787 84.7135 51.1391 85.9372 50.4341V53.125H89.0622V50.4341C90.286 51.1391 90.8826 52.5787 90.5164 53.9429C90.1502 55.307 88.9119 56.2538 87.4997 56.25Z"/>
<path d="M32.8125 43.75H35.9375V46.875H32.8125V43.75Z"/>

</symbol><symbol id="facebook" viewBox="0 0 24 24">
<path d="M13.397 20.9972V12.8012H16.162L16.573 9.59217H13.397V7.54817C13.397 6.62217 13.655 5.98817 14.984 5.98817H16.668V3.12717C15.8487 3.03936 15.0251 2.99696 14.201 3.00017C11.757 3.00017 10.079 4.49217 10.079 7.23117V9.58617H7.33203V12.7952H10.085V20.9972H13.397Z"/>
</symbol><symbol id="google" viewBox="0 0 24 24"><path d="M22.60229,10.00391a1.00005,1.00005,0,0,0-.98388-.82227H12.2a.99974.99974,0,0,0-1,1V14.0498a.99974.99974,0,0,0,1,1h3.9624a3.65162,3.65162,0,0,1-1.13183,1.1875A5.0604,5.0604,0,0,1,12.2,17.02246a4.93525,4.93525,0,0,1-4.64624-3.4378L7.55347,13.583a4.90382,4.90382,0,0,1,0-3.167l.00024-.00165A4.9356,4.9356,0,0,1,12.2,6.97754,4.37756,4.37756,0,0,1,15.3313,8.19531a1.00053,1.00053,0,0,0,1.39844-.01562L19.5979,5.31152a.99918.99918,0,0,0-.02539-1.43847A10.62342,10.62342,0,0,0,12.2,1,10.949,10.949,0,0,0,2.37134,7.05878l-.00147.00177A10.92175,10.92175,0,0,0,1.2,12a11.07862,11.07862,0,0,0,1.16992,4.93945l.00147.00177A10.949,10.949,0,0,0,12.2,23a10.5255,10.5255,0,0,0,7.29468-2.687l.00073-.00049.00079-.00085.00019-.00013.00006-.00012a10.78575,10.78575,0,0,0,3.30365-8.08386A12.51533,12.51533,0,0,0,22.60229,10.00391ZM12.2,3a8.68219,8.68219,0,0,1,5.2085,1.67285L15.95483,6.126A6.46322,6.46322,0,0,0,12.2,4.97754,6.88648,6.88648,0,0,0,6.21069,8.52832L5.14148,7.69958l-.585-.45367A8.95257,8.95257,0,0,1,12.2,3ZM3.67944,14.90332a9.02957,9.02957,0,0,1,0-5.80664l1.78223,1.38184a6.85381,6.85381,0,0,0,0,3.042ZM12.2,21A8.9528,8.9528,0,0,1,4.5564,16.75391l.37841-.29352,1.27588-.98969A6.88482,6.88482,0,0,0,12.2,19.02246a7.27662,7.27662,0,0,0,3.30573-.75079L17.19739,19.585A8.88989,8.88989,0,0,1,12.2,21Zm6.52588-2.76074-.183-.142L17.16553,17.028a5.60626,5.60626,0,0,0,1.39966-2.79553.9998.9998,0,0,0-.9834-1.18262H13.2V11.18164h7.54883c.03418.3457.05127.69531.05127,1.0459A9.05156,9.05156,0,0,1,18.72583,18.23926Z"/></symbol><symbol id="instagram" viewBox="0 0 24 24">
<path d="M16.5 0H7.5C3.3585 0 0 3.3585 0 7.5V16.5C0 20.6415 3.3585 24 7.5 24H16.5C20.6415 24 24 20.6415 24 16.5V7.5C24 3.3585 20.6415 0 16.5 0ZM21.75 16.5C21.75 19.395 19.395 21.75 16.5 21.75H7.5C4.605 21.75 2.25 19.395 2.25 16.5V7.5C2.25 4.605 4.605 2.25 7.5 2.25H16.5C19.395 2.25 21.75 4.605 21.75 7.5V16.5Z"/>
<path d="M12 6C8.6865 6 6 8.6865 6 12C6 15.3135 8.6865 18 12 18C15.3135 18 18 15.3135 18 12C18 8.6865 15.3135 6 12 6ZM12 15.75C9.933 15.75 8.25 14.067 8.25 12C8.25 9.9315 9.933 8.25 12 8.25C14.067 8.25 15.75 9.9315 15.75 12C15.75 14.067 14.067 15.75 12 15.75Z"/>
<path d="M18.4479 6.34997C18.8895 6.34997 19.2474 5.99203 19.2474 5.55048C19.2474 5.10892 18.8895 4.75098 18.4479 4.75098C18.0064 4.75098 17.6484 5.10892 17.6484 5.55048C17.6484 5.99203 18.0064 6.34997 18.4479 6.34997Z"/>
</symbol><symbol id="passwordEyeClosed" viewBox="0 0 512 512">
<style type="text/css">
	.st0{fill:#898989;}
</style>
<title>eye-disabled-other</title>
<g>
	<path class="st0" d="M71.3,341c-1.4,0-2.8-0.5-3.8-1.5C39.7,314.2,17,284,0.5,250.3c-0.8-1.6-0.8-3.4,0-5
		C49.9,145.1,147.7,82.8,256,82.8c19.3,0,38.5,2,57.4,6c3.1,0.7,5.1,3.7,4.4,6.8s-3.7,5.1-6.8,4.4c-18.1-3.8-36.5-5.8-55-5.8
		C153,94.2,59.8,153,12,247.8c15.8,31.4,37.2,59.6,63.1,83.3c2.3,2.1,2.5,5.7,0.4,8C74.4,340.3,72.8,341,71.3,341L71.3,341z"/>
	<path class="st0" d="M256,412.8c-40.9,0.1-81.3-8.9-118.4-26.4c-2.8-1.3-4.1-4.7-2.7-7.6c1.3-2.8,4.7-4.1,7.6-2.7l0,0
		c35.5,16.7,74.3,25.3,113.5,25.3c103,0,196.2-58.8,244-153.6c-24.7-48.9-62-89.1-108-116.4c-2.7-1.6-3.6-5.1-2-7.8
		c1.6-2.7,5.1-3.6,7.8-2c48.8,28.9,88.1,71.6,113.7,123.7c0.8,1.6,0.8,3.4,0,5C462,350.5,364.2,412.8,256,412.8z"/>
	<path class="st0" d="M256,344.5c-21.1,0.1-41.7-6.8-58.4-19.7c-2.6-1.8-3.3-5.3-1.5-7.9c1.8-2.6,5.3-3.3,7.9-1.5
		c0.2,0.1,0.4,0.3,0.5,0.4c14.8,11.3,32.9,17.4,51.5,17.3c47.1-0.1,85.3-38.2,85.3-85.3c0.1-18.6-6-36.7-17.3-51.5
		c-2.1-2.4-1.8-6,0.5-8c2.4-2.1,6-1.8,8,0.5c0.2,0.2,0.3,0.4,0.4,0.5c12.9,16.7,19.8,37.3,19.7,58.4
		C352.6,301.2,309.3,344.4,256,344.5z"/>
	<path class="st0" d="M165.2,247.1h-0.4c-3.1-0.2-5.5-2.9-5.3-6.1c3.4-48.1,41.7-86.3,89.7-89.7c3.1-0.2,5.9,2.2,6.1,5.3
		c0.2,3.1-2.2,5.9-5.3,6.1c-42.4,3-76.1,36.7-79.1,79.1C170.6,244.8,168.2,247.1,165.2,247.1z"/>
	<path class="st0" d="M23.6,497.8c-3.1,0-5.7-2.6-5.7-5.7c0-1.5,0.6-2.9,1.7-4L492.2,15.5c2.4-2,6-1.6,8,0.9c1.7,2.1,1.7,5.1,0,7.1
		L27.7,496.1C26.6,497.2,25.2,497.8,23.6,497.8z"/>
</g>
</symbol><symbol id="passwordEyeOpen" viewBox="0 0 512 512"><title>eye-other</title><path class="cls-1" d="M256,421C147.78,421,49.91,358.72.58,258.51a5.7,5.7,0,0,1,0-5C49.91,153.28,147.78,91,256,91s206.09,62.26,255.42,162.47a5.7,5.7,0,0,1,0,5C462.09,358.72,364.22,421,256,421ZM12,256c47.78,94.82,141,153.6,244,153.6S452.17,350.82,500,256c-47.78-94.82-141-153.6-244-153.6S59.83,161.18,12,256Z"/><path class="cls-1" d="M256,352.71A96.71,96.71,0,1,1,352.71,256,96.82,96.82,0,0,1,256,352.71Zm0-182A85.33,85.33,0,1,0,341.33,256,85.43,85.43,0,0,0,256,170.67Z"/></symbol><symbol id="sertificate" viewBox="0 0 100 100">
<path d="M9.375 9.375H12.5V12.5H9.375V9.375Z"/>
<path d="M9.375 15.625H12.5V18.75H9.375V15.625Z"/>
<path d="M87.5 81.25H90.625V84.375H87.5V81.25Z"/>
<path d="M87.5 87.5H90.625V90.625H87.5V87.5Z"/>
<path d="M84.375 71.875H60.9375C58.3488 71.875 56.25 73.9738 56.25 76.5625V81.25H46.875V84.375H19.5312C10.4706 84.375 3.125 77.0294 3.125 67.9688C3.125 58.9081 10.4706 51.5625 19.5312 51.5625H80.4688C91.2552 51.5625 100 42.8177 100 32.0312C100 21.2448 91.2552 12.5 80.4688 12.5H53.125V9.375H43.75V4.6875C43.75 2.09885 41.6512 0 39.0625 0H15.625V3.125H0V25H15.625V28.125H39.0625C41.6512 28.125 43.75 26.0262 43.75 23.4375V18.75H53.125V15.625H80.4688C89.5294 15.625 96.875 22.9706 96.875 32.0312C96.875 41.0919 89.5294 48.4375 80.4688 48.4375H19.5312C8.74481 48.4375 0 57.1823 0 67.9688C0 78.7552 8.74481 87.5 19.5312 87.5H46.875V90.625H56.25V95.3125C56.25 97.9012 58.3488 100 60.9375 100H84.375V96.875H100V75H84.375V71.875ZM15.625 21.875H3.125V6.25H15.625V21.875ZM40.625 9.375V23.4375C40.625 24.3004 39.9254 25 39.0625 25H18.75V3.125H39.0625C39.9254 3.125 40.625 3.82462 40.625 4.6875V9.375ZM50 15.625H43.75V12.5H50V15.625ZM56.25 87.5H50V84.375H56.25V87.5ZM81.25 96.875H60.9375C60.0746 96.875 59.375 96.1754 59.375 95.3125V76.5625C59.375 75.6996 60.0746 75 60.9375 75H81.25V96.875ZM96.875 78.125V93.75H84.375V78.125H96.875Z"/>

</symbol><symbol id="usb" viewBox="0 0 100 100">
<path d="M43.75 6.25H46.875V18.75H43.75V6.25Z"/>
<path d="M53.125 6.25H56.25V18.75H53.125V6.25Z"/>
<path d="M65.625 21.875V0H34.375V21.875H28.125V100H71.875V21.875H65.625ZM37.5 3.125H62.5V21.875H37.5V3.125ZM68.75 96.875H31.25V25H68.75V96.875Z"/>
<path d="M37.4998 62.2124V71.3425L48.4373 76.03V81.5376C46.2851 82.2983 44.9934 84.4994 45.3794 86.7493C45.7655 88.9999 47.7171 90.6441 49.9998 90.6441C52.2825 90.6441 54.2341 88.9999 54.6202 86.7493C55.0062 84.4994 53.7146 82.2983 51.5623 81.5376V70.2126L62.4998 60.0563V53.125H65.6248V43.75H56.2498V53.125H59.3748V58.6922L51.5623 65.9485V37.1094L54.6202 40.1672L56.8296 37.9578L49.9998 31.1279L43.17 37.9578L45.3794 40.1672L48.4373 37.1094V72.6311L40.6248 69.2825V62.2124C42.7771 61.4517 44.0687 59.2506 43.6827 57.0007C43.2966 54.7501 41.345 53.1059 39.0623 53.1059C36.7796 53.1059 34.828 54.7501 34.4419 57.0007C34.0559 59.2506 35.3476 61.4517 37.4998 62.2124ZM59.3748 46.875H62.4998V50H59.3748V46.875ZM49.9998 84.375C50.8627 84.375 51.5623 85.0746 51.5623 85.9375C51.5623 86.8004 50.8627 87.5 49.9998 87.5C49.1369 87.5 48.4373 86.8004 48.4373 85.9375C48.4373 85.0746 49.1369 84.375 49.9998 84.375ZM39.0623 56.25C39.9252 56.25 40.6248 56.9496 40.6248 57.8125C40.6248 58.6754 39.9252 59.375 39.0623 59.375C38.1994 59.375 37.4998 58.6754 37.4998 57.8125C37.4998 56.9496 38.1994 56.25 39.0623 56.25Z"/>

</symbol><symbol id="user" viewBox="0 0 1000 1000">
<metadata> Svg Vector Icons : http://www.onlinewebfonts.com/icon </metadata>
<g><path d="M500,990c271.1,0,490-218.9,490-490c0-271.1-218.9-490-490-490C228.9,10,10,228.9,10,500C10,771.1,228.9,990,500,990L500,990L500,990z M500,72.1c235.2,0,427.9,192.7,427.9,427.9c0,235.2-192.7,427.9-427.9,427.9C264.8,927.9,72.1,735.2,72.1,500C72.1,264.8,264.8,72.1,500,72.1L500,72.1L500,72.1z M500,176.6c104.5,0,192.7,84.9,192.7,189.5c0,104.5-84.9,189.5-192.7,189.5c-104.5,0-192.7-84.9-192.7-189.5C307.3,261.5,395.5,176.6,500,176.6L500,176.6L500,176.6z M500,503.3c75.1,0,137.2-62.1,137.2-133.9c0-75.1-62.1-133.9-137.2-133.9c-75.1,0-137.2,62.1-137.2,133.9C362.8,441.2,424.9,503.3,500,503.3L500,503.3L500,503.3z M500,503.3c150.3,0,274.4,120.9,274.4,271.1h-55.5c0-120.9-98-215.6-218.9-215.6s-218.9,98-218.9,215.6h-55.5C225.6,624.1,349.7,503.3,500,503.3L500,503.3L500,503.3z"/></g>
</symbol><symbol id="vk" viewBox="0 0 24 24">
<g>
<path fill-rule="evenodd" clip-rule="evenodd" d="M21.3625 14.7577C21.3625 14.7577 23.3029 16.6741 23.7829 17.5609C23.7922 17.5736 23.7995 17.5878 23.8045 17.6029C24.0001 17.9305 24.0481 18.1873 23.9521 18.3769C23.7901 18.6901 23.2417 18.8473 23.0557 18.8605H19.6261C19.3873 18.8605 18.8905 18.7981 18.2857 18.3805C17.8237 18.0577 17.3641 17.5261 16.9189 17.0065C16.2541 16.2349 15.6793 15.5653 15.0973 15.5653C15.0238 15.5651 14.9508 15.5773 14.8813 15.6013C14.4409 15.7405 13.8817 16.3681 13.8817 18.0397C13.8817 18.5629 13.4689 18.8605 13.1797 18.8605H11.6089C11.0737 18.8605 8.28731 18.6733 5.81651 16.0681C2.78891 12.8785 0.0697081 6.48005 0.0433081 6.42365C-0.125892 6.00965 0.229308 5.78405 0.613308 5.78405H4.07651C4.54091 5.78405 4.69211 6.06485 4.79771 6.31685C4.92011 6.60605 5.37371 7.76285 6.11771 9.06245C7.32251 11.1768 8.06291 12.0373 8.65451 12.0373C8.76566 12.0376 8.87492 12.0086 8.97131 11.9533C9.74411 11.5285 9.60011 8.76845 9.56411 8.19965C9.56411 8.08925 9.56291 6.96725 9.16691 6.42485C8.88371 6.03605 8.40131 5.88485 8.10971 5.82965C8.18771 5.71685 8.35331 5.54405 8.56571 5.44205C9.09491 5.17805 10.0513 5.13965 11.0005 5.13965H11.5273C12.5569 5.15405 12.8233 5.22005 13.1977 5.31485C13.9513 5.49485 13.9657 5.98325 13.8997 7.64645C13.8805 8.12165 13.8601 8.65685 13.8601 9.28685C13.8601 9.42125 13.8541 9.57125 13.8541 9.72365C13.8313 10.5768 13.8013 11.5381 14.4037 11.9329C14.4818 11.9815 14.5721 12.0073 14.6641 12.0072C14.8729 12.0072 15.4981 12.0072 17.1937 9.09725C17.9377 7.81205 18.5137 6.29645 18.5533 6.18245C18.5869 6.11885 18.6877 5.94005 18.8101 5.86805C18.8972 5.82172 18.9947 5.79858 19.0933 5.80085H23.1673C23.6113 5.80085 23.9125 5.86805 23.9713 6.03605C24.0697 6.30845 23.9521 7.14005 22.0921 9.65525C21.7789 10.074 21.5041 10.4365 21.2629 10.7533C19.5769 12.9661 19.5769 13.0777 21.3625 14.7577Z"/>
</g>

</symbol><symbol id="youtube" viewBox="0 0 24 24">
<path d="M22.0576 6.94539C21.9381 6.50142 21.7041 6.09662 21.3789 5.77152C21.0538 5.44641 20.649 5.21239 20.2051 5.09289C18.5701 4.65039 12.0001 4.65039 12.0001 4.65039C12.0001 4.65039 5.43008 4.65039 3.79508 5.09289C3.35111 5.21239 2.94631 5.44641 2.6212 5.77152C2.29609 6.09662 2.06208 6.50142 1.94258 6.94539C1.63729 8.61284 1.48914 10.3053 1.50008 12.0004C1.48914 13.6955 1.63729 15.3879 1.94258 17.0554C2.06208 17.4994 2.29609 17.9042 2.6212 18.2293C2.94631 18.5544 3.35111 18.7884 3.79508 18.9079C5.43008 19.3504 12.0001 19.3504 12.0001 19.3504C12.0001 19.3504 18.5701 19.3504 20.2051 18.9079C20.649 18.7884 21.0538 18.5544 21.3789 18.2293C21.7041 17.9042 21.9381 17.4994 22.0576 17.0554C22.3629 15.3879 22.511 13.6955 22.5001 12.0004C22.511 10.3053 22.3629 8.61284 22.0576 6.94539ZM9.90008 15.1504V8.85039L15.3526 12.0004L9.90008 15.1504Z"/>
</symbol></svg>